# xmcd CD database file
#
# Track frame offsets:
#	150
#	8954
#	21371
#	30061
#	43761
#	55486
#	65276
#	77291
#	88005
#	97718
#	111200
#	126544
#	139612
#	152673
#	165758
#	178521
#
# Disc length: 2669 seconds
#
# Revision: 1
# Processed by: cddbd v1.5.1PL0 Copyright (c) Steve Scherf et al.
# Submitted via: jetAudio 5
#
DISCID=b80a6b10
DTITLE=The Platters - Christmas Special
DYEAR=1900
DGENRE=
TTITLE0=Rudolph The Red-Nosed Reindeer
TTITLE1=I'll Be Home for Christmas
TTITLE2=Blue Christmas
TTITLE3=Silent Night
TTITLE4=White Christmas
TTITLE5=Here Comes Santa Claus
TTITLE6=We Wish You a Merry Christmas
TTITLE7=I Saw Mommy Kissing Santa Claus
TTITLE8=Deck The Halls
TTITLE9=God Rest Ye Merry Gentlemen
TTITLE10=The Christmas Song
TTITLE11=Silver Bells
TTITLE12=Joy to the World
TTITLE13=Away in a Manger
TTITLE14=O Tannenbaum
TTITLE15='Twas the Night Before Christmas
EXTD=
EXTT0=
EXTT1=
EXTT2=
EXTT3=
EXTT4=
EXTT5=
EXTT6=
EXTT7=
EXTT8=
EXTT9=
EXTT10=
EXTT11=
EXTT12=
EXTT13=
EXTT14=
EXTT15=
PLAYORDER=
